<svg xmlns="http://www.w3.org/2000/svg" width="300" height="300" viewBox="0 0 45 45" shape-rendering="crispEdges"><path fill="#ffffff" d="M0 0h45v45H0z"/><path stroke="#000000" d="M2 2.5h7m1 0h1m5 0h1m2 0h2m2 0h1m1 0h2m1 0h1m2 0h2m3 0h7M2 3.5h1m5 0h1m3 0h1m3 0h8m1 0h1m1 0h2m1 0h1m1 0h1m1 0h1m1 0h1m5 0h1M2 4.5h1m1 0h3m1 0h1m1 0h3m1 0h2m2 0h2m2 0h1m1 0h2m1 0h1m2 0h1m2 0h1m2 0h1m1 0h3m1 0h1M2 5.5h1m1 0h3m1 0h1m2 0h1m2 0h1m1 0h1m2 0h2m1 0h1m2 0h1m4 0h1m1 0h1m1 0h1m1 0h1m1 0h3m1 0h1M2 6.5h1m1 0h3m1 0h1m1 0h1m3 0h1m2 0h4m2 0h5m2 0h2m1 0h1m2 0h1m1 0h3m1 0h1M2 7.5h1m5 0h1m3 0h1m1 0h2m1 0h1m2 0h2m1 0h3m5 0h1m2 0h1m1 0h1m5 0h1M2 8.5h7m1 0h1m1 0h1m1 0h1m1 0h1m1 0h1m1 0h1m1 0h1m1 0h1m1 0h1m1 0h1m1 0h1m1 0h1m1 0h1m1 0h7M10 9.5h2m1 0h1m1 0h3m1 0h1m1 0h3m2 0h2M7 10.5h2m4 0h2m1 0h1m6 0h1m1 0h3m3 0h1m4 0h1m1 0h1m1 0h1m1 0h1M2 11.5h1m1 0h3m3 0h1m2 0h3m3 0h1m1 0h2m4 0h3m1 0h3m1 0h1m2 0h1M7 12.5h3m1 0h2m2 0h1m2 0h2m1 0h2m6 0h1m1 0h1m3 0h2m1 0h1M2 13.5h2m3 0h1m1 0h5m6 0h6m1 0h1m6 0h1m1 0h1m1 0h2m1 0h1M5 14.5h4m2 0h1m6 0h1m2 0h2m2 0h1m2 0h1m5 0h3M2 15.5h3m1 0h1m2 0h2m2 0h1m3 0h2m1 0h1m1 0h1m3 0h1m1 0h1m3 0h1m1 0h1m3 0h2m1 0h2M2 16.5h1m2 0h1m1 0h2m3 0h1m1 0h5m1 0h2m1 0h1m1 0h1m1 0h7m1 0h4M3 17.5h1m1 0h2m2 0h2m1 0h3m1 0h1m1 0h1m6 0h3m2 0h1m1 0h2m4 0h1m1 0h2M3 18.5h3m2 0h2m1 0h3m2 0h2m2 0h1m8 0h3m1 0h3m1 0h1m1 0h2M7 19.5h1m2 0h1m2 0h3m1 0h2m2 0h1m2 0h2m1 0h5m1 0h1m2 0h1m1 0h2m1 0h2M7 20.5h8m6 0h1m2 0h1m3 0h3m2 0h2m1 0h3m3 0h1M2 21.5h1m1 0h1m8 0h1m3 0h5m3 0h4m2 0h3m1 0h2m1 0h2m1 0h2M2 22.5h2m1 0h2m1 0h1m2 0h1m1 0h4m1 0h2m1 0h1m4 0h1m1 0h2m4 0h2m4 0h2M2 23.5h1m1 0h4m5 0h3m1 0h3m2 0h2m1 0h5m2 0h2m1 0h1m1 0h2M3 24.5h2m2 0h2m1 0h3m4 0h2m2 0h1m4 0h1m2 0h4m1 0h2m1 0h4M6 25.5h2m2 0h3m1 0h1m1 0h1m2 0h1m3 0h1m1 0h1m1 0h3m3 0h2m4 0h1m1 0h1M2 26.5h2m3 0h3m2 0h2m3 0h1m3 0h2m1 0h1m2 0h1m1 0h2m3 0h3m4 0h2M2 27.5h1m1 0h3m3 0h3m1 0h3m2 0h2m1 0h3m2 0h1m1 0h2m1 0h5m1 0h2m2 0h1M4 28.5h2m2 0h1m2 0h1m3 0h2m1 0h4m2 0h1m2 0h3m1 0h2m1 0h1m1 0h1m1 0h1M2 29.5h2m3 0h1m1 0h1m3 0h2m2 0h1m1 0h3m5 0h1m5 0h1m3 0h4M3 30.5h1m2 0h1m1 0h1m1 0h2m1 0h1m1 0h1m2 0h1m1 0h3m3 0h2m3 0h1m1 0h2m1 0h2m1 0h3M2 31.5h2m2 0h1m2 0h1m1 0h1m2 0h3m4 0h1m1 0h1m2 0h1m1 0h1m1 0h1m1 0h1m5 0h1m1 0h1m1 0h1M2 32.5h2m1 0h1m1 0h2m2 0h4m8 0h3m1 0h1m2 0h1m1 0h2m4 0h2m2 0h1M2 33.5h1m1 0h1m1 0h2m1 0h1m1 0h1m2 0h2m1 0h3m1 0h2m1 0h7m4 0h4M2 34.5h1m1 0h1m1 0h3m1 0h3m1 0h1m5 0h2m3 0h2m3 0h2m2 0h7M10 35.5h1m3 0h1m1 0h1m5 0h2m3 0h1m1 0h2m1 0h3m3 0h4M2 36.5h7m2 0h1m1 0h2m3 0h1m2 0h5m1 0h4m1 0h3m1 0h1m1 0h1m1 0h1M2 37.5h1m5 0h1m1 0h2m1 0h1m1 0h1m1 0h1m1 0h1m2 0h5m3 0h1m3 0h1m3 0h2m1 0h2M2 38.5h1m1 0h3m1 0h1m2 0h3m3 0h1m1 0h3m2 0h1m2 0h1m1 0h1m1 0h9M2 39.5h1m1 0h3m1 0h1m3 0h2m2 0h2m1 0h3m3 0h6m6 0h1m2 0h3M2 40.5h1m1 0h3m1 0h1m2 0h1m1 0h2m2 0h1m1 0h1m1 0h3m1 0h1m1 0h1m1 0h2m1 0h1m2 0h4m2 0h1M2 41.5h1m5 0h1m2 0h1m1 0h1m2 0h1m1 0h6m2 0h3m7 0h1m1 0h3m1 0h1M2 42.5h7m2 0h1m5 0h1m1 0h1m7 0h1m3 0h1m4 0h3m1 0h1"/>
  <rect x="9.899999999999999" y="20.25" width="25.200000000000003" height="4.5" rx="0.54" fill="white"/>
  <text x="22.5" y="22.5" dy="0.35em" text-anchor="middle" font-family="Arial, sans-serif" font-size="1.71" font-weight="700" fill="black" textLength="22.680000000000003" lengthAdjust="spacingAndGlyphs">CTPAT-CCTV-001</text>
</svg>
